<svg width="1600" height="1000" viewBox="0 0 1600 1000" fill="none" xmlns="http://www.w3.org/2000/svg">
  <defs>
    <filter id="paperShadow" x="-20%" y="-20%" width="140%" height="140%">
      <feDropShadow dx="0" dy="8" stdDeviation="12" flood-color="#241b13" flood-opacity="0.18"/>
    </filter>
    <radialGradient id="foxGlow" cx="0" cy="0" r="1" gradientUnits="userSpaceOnUse" gradientTransform="translate(0 0) rotate(90) scale(86 76)">
      <stop stop-color="#D48D56" stop-opacity="0.78"/>
      <stop offset="1" stop-color="#D48D56" stop-opacity="0"/>
    </radialGradient>
    <radialGradient id="rabbitGlow" cx="0" cy="0" r="1" gradientUnits="userSpaceOnUse" gradientTransform="translate(0 0) rotate(90) scale(86 76)">
      <stop stop-color="#D7BF68" stop-opacity="0.8"/>
      <stop offset="1" stop-color="#D7BF68" stop-opacity="0"/>
    </radialGradient>
    <radialGradient id="mouseGlow" cx="0" cy="0" r="1" gradientUnits="userSpaceOnUse" gradientTransform="translate(0 0) rotate(90) scale(86 76)">
      <stop stop-color="#7E9C8F" stop-opacity="0.78"/>
      <stop offset="1" stop-color="#7E9C8F" stop-opacity="0"/>
    </radialGradient>
  </defs>

  <rect width="1600" height="1000" fill="#D5C5A5"/>
  <rect x="18" y="18" width="1564" height="964" rx="40" fill="#B8A88D" opacity="0.45"/>
  <rect x="28" y="28" width="1544" height="944" rx="38" fill="#BFA785" stroke="#8D6D42" stroke-width="10"/>
  <rect x="40" y="40" width="1520" height="920" rx="30" fill="#C7B08A" stroke="#E4D4B6" stroke-opacity="0.55" stroke-width="4"/>

  <g fill="none" stroke-linecap="round" stroke-linejoin="round">
    <line x1="134.4" y1="182" x2="803.2" y2="158" stroke="#8C7452" stroke-width="24" opacity="0.48"/>
    <line x1="134.4" y1="182" x2="803.2" y2="158" stroke="#FFF7E9" stroke-width="8" stroke-dasharray="2 18"/>

    <line x1="134.4" y1="182" x2="684.8" y2="320" stroke="#8C7452" stroke-width="24" opacity="0.48"/>
    <line x1="134.4" y1="182" x2="684.8" y2="320" stroke="#FFF7E9" stroke-width="8" stroke-dasharray="2 18"/>

    <line x1="134.4" y1="182" x2="144" y2="430" stroke="#8C7452" stroke-width="24" opacity="0.48"/>
    <line x1="134.4" y1="182" x2="144" y2="430" stroke="#FFF7E9" stroke-width="8" stroke-dasharray="2 18"/>

    <line x1="803.2" y1="158" x2="1388.8" y2="282" stroke="#8C7452" stroke-width="24" opacity="0.48"/>
    <line x1="803.2" y1="158" x2="1388.8" y2="282" stroke="#FFF7E9" stroke-width="8" stroke-dasharray="2 18"/>

    <line x1="684.8" y1="320" x2="1388.8" y2="282" stroke="#8C7452" stroke-width="24" opacity="0.48"/>
    <line x1="684.8" y1="320" x2="1388.8" y2="282" stroke="#FFF7E9" stroke-width="8" stroke-dasharray="2 18"/>

    <line x1="1388.8" y1="282" x2="1324.8" y2="428" stroke="#8C7452" stroke-width="24" opacity="0.48"/>
    <line x1="1388.8" y1="282" x2="1324.8" y2="428" stroke="#FFF7E9" stroke-width="8" stroke-dasharray="2 18"/>

    <line x1="1324.8" y1="428" x2="1032" y2="500" stroke="#8C7452" stroke-width="24" opacity="0.48"/>
    <line x1="1324.8" y1="428" x2="1032" y2="500" stroke="#FFF7E9" stroke-width="8" stroke-dasharray="2 18"/>

    <line x1="1032" y1="500" x2="540.8" y2="600" stroke="#8C7452" stroke-width="24" opacity="0.48"/>
    <line x1="1032" y1="500" x2="540.8" y2="600" stroke="#FFF7E9" stroke-width="8" stroke-dasharray="2 18"/>

    <line x1="684.8" y1="320" x2="540.8" y2="600" stroke="#8C7452" stroke-width="24" opacity="0.48"/>
    <line x1="684.8" y1="320" x2="540.8" y2="600" stroke="#FFF7E9" stroke-width="8" stroke-dasharray="2 18"/>

    <line x1="144" y1="430" x2="540.8" y2="600" stroke="#8C7452" stroke-width="24" opacity="0.48"/>
    <line x1="144" y1="430" x2="540.8" y2="600" stroke="#FFF7E9" stroke-width="8" stroke-dasharray="2 18"/>

    <line x1="192" y1="730" x2="144" y2="430" stroke="#8C7452" stroke-width="24" opacity="0.48"/>
    <line x1="192" y1="730" x2="144" y2="430" stroke="#FFF7E9" stroke-width="8" stroke-dasharray="2 18"/>

    <line x1="192" y1="730" x2="540.8" y2="600" stroke="#8C7452" stroke-width="24" opacity="0.48"/>
    <line x1="192" y1="730" x2="540.8" y2="600" stroke="#FFF7E9" stroke-width="8" stroke-dasharray="2 18"/>

    <line x1="192" y1="730" x2="376" y2="900" stroke="#8C7452" stroke-width="24" opacity="0.48"/>
    <line x1="192" y1="730" x2="376" y2="900" stroke="#FFF7E9" stroke-width="8" stroke-dasharray="2 18"/>

    <line x1="976" y1="790" x2="540.8" y2="600" stroke="#8C7452" stroke-width="24" opacity="0.48"/>
    <line x1="976" y1="790" x2="540.8" y2="600" stroke="#FFF7E9" stroke-width="8" stroke-dasharray="2 18"/>

    <line x1="976" y1="790" x2="376" y2="900" stroke="#8C7452" stroke-width="24" opacity="0.48"/>
    <line x1="976" y1="790" x2="376" y2="900" stroke="#FFF7E9" stroke-width="8" stroke-dasharray="2 18"/>

    <line x1="1360" y1="860" x2="976" y2="790" stroke="#8C7452" stroke-width="24" opacity="0.48"/>
    <line x1="1360" y1="860" x2="976" y2="790" stroke="#FFF7E9" stroke-width="8" stroke-dasharray="2 18"/>

    <line x1="1360" y1="860" x2="1032" y2="500" stroke="#8C7452" stroke-width="24" opacity="0.48"/>
    <line x1="1360" y1="860" x2="1032" y2="500" stroke="#FFF7E9" stroke-width="8" stroke-dasharray="2 18"/>

    <line x1="1360" y1="860" x2="1324.8" y2="428" stroke="#8C7452" stroke-width="24" opacity="0.48"/>
    <line x1="1360" y1="860" x2="1324.8" y2="428" stroke="#FFF7E9" stroke-width="8" stroke-dasharray="2 18"/>
  </g>

  <g filter="url(#paperShadow)">
    <g transform="translate(134.4 182)">
      <ellipse rx="88" ry="96" fill="#F5EAD7" stroke="#8C704C" stroke-width="8"/>
      <ellipse rx="44" ry="48" fill="url(#foxGlow)"/>
    </g>
    <g transform="translate(803.2 158)">
      <ellipse rx="86" ry="94" fill="#F5EAD7" stroke="#8C704C" stroke-width="8"/>
      <ellipse rx="44" ry="48" fill="url(#rabbitGlow)"/>
    </g>
    <g transform="translate(1388.8 282)">
      <ellipse rx="86" ry="94" fill="#F5EAD7" stroke="#8C704C" stroke-width="8"/>
      <ellipse rx="44" ry="48" fill="url(#mouseGlow)"/>
    </g>
    <g transform="translate(144 430)">
      <ellipse rx="84" ry="92" fill="#F5EAD7" stroke="#8C704C" stroke-width="8"/>
      <ellipse rx="44" ry="48" fill="url(#mouseGlow)"/>
    </g>
    <g transform="translate(684.8 320)">
      <ellipse rx="84" ry="92" fill="#F5EAD7" stroke="#8C704C" stroke-width="8"/>
      <ellipse rx="42" ry="46" fill="url(#rabbitGlow)"/>
    </g>
    <g transform="translate(1032 500)">
      <ellipse rx="88" ry="96" fill="#F5EAD7" stroke="#8C704C" stroke-width="8"/>
      <ellipse rx="44" ry="48" fill="url(#mouseGlow)"/>
    </g>
    <g transform="translate(1324.8 428)">
      <ellipse rx="84" ry="92" fill="#F5EAD7" stroke="#8C704C" stroke-width="8"/>
      <ellipse rx="42" ry="46" fill="url(#foxGlow)"/>
    </g>
    <g transform="translate(192 730)">
      <ellipse rx="84" ry="92" fill="#F5EAD7" stroke="#8C704C" stroke-width="8"/>
      <ellipse rx="42" ry="46" fill="url(#rabbitGlow)"/>
    </g>
    <g transform="translate(540.8 600)">
      <ellipse rx="86" ry="94" fill="#F5EAD7" stroke="#8C704C" stroke-width="8"/>
      <ellipse rx="44" ry="48" fill="url(#foxGlow)"/>
    </g>
    <g transform="translate(976 790)">
      <ellipse rx="86" ry="94" fill="#F5EAD7" stroke="#8C704C" stroke-width="8"/>
      <ellipse rx="44" ry="48" fill="url(#mouseGlow)"/>
    </g>
    <g transform="translate(376 900)">
      <ellipse rx="84" ry="92" fill="#F5EAD7" stroke="#8C704C" stroke-width="8"/>
      <ellipse rx="42" ry="46" fill="url(#foxGlow)"/>
    </g>
    <g transform="translate(1360 860)">
      <ellipse rx="84" ry="92" fill="#F5EAD7" stroke="#8C704C" stroke-width="8"/>
      <ellipse rx="42" ry="46" fill="url(#rabbitGlow)"/>
    </g>
  </g>
</svg>
